<svg xml:space="preserve" style="max-height:500px" viewBox="0.274 16.426 136.608 36"
  xmlns="http://www.w3.org/2000/svg" width="136.608" height="36"><path d="m46.136 16.487-.001-.008m1.267 4.43" style="fill:#073577"/><path d="M22.888 41.825a8.6 8.6 0 0 0-1.644-1.14l-.023-.013-.002-.001a5 5 0 0 0-.243-.122c-.617-.287-1.377-.486-2.464-.699-.649-.127-1.126-.256-3.01-.528-4.223-.609-5.044-.702-6.11-.938-1.906-.42-2.767-1.022-3.235-1.81-.774-1.305-.582-2.556-.555-3.231.709.565 1.696 1.068 2.967 1.395 1.198.308 1.422.344 4.506.996 1.336.282 2.602.574 4.067.993.333.095.626.183.888.264l.004.001c1.129.353 1.646.61 2.162.921.783.47 1.492.943 2.063 1.916l.001.001.031.053a4.7 4.7 0 0 1 .543 1.524q.037.22.055.416" style="fill:#00a5b2"/><path d="M22.291 38.385c-.565-.998-1.191-1.411-2.096-1.971-.631-.39-1.278-.678-3.054-1.186a57 57 0 0 0-4.067-.993c-3.084-.652-3.308-.689-4.506-.996-1.786-.459-3.012-1.268-3.691-2.104-1.196-1.473-1.029-3.561-1.142-4.691q.248.24.545.464c.546.412 2.192 1.29 3.933 1.973 3.11 1.219 4.32 1.402 7.754 2.721.832.319 1.502.594 2.089.891l.028.015a8.8 8.8 0 0 1 1.832 1.233c.539.472 1.242 1.078 1.761 2.113.479.955.602 1.872.616 2.533" style="fill:#007fa5"/><path d="M21.676 34.358c-.519-1.035-1.222-1.641-1.761-2.113a8.8 8.8 0 0 0-1.832-1.233l-.028-.015c-.587-.297-1.257-.571-2.089-.891-3.434-1.32-4.644-1.503-7.754-2.721-1.741-.683-3.387-1.561-3.933-1.973-2.548-1.921-2.299-4.782-2.414-6.813.972.811 2.102 1.759 4.157 2.944 1.351.78 3.818 1.889 6.441 3.121 5.3 2.491 5.809 2.965 6.3 3.335 1.779 1.342 2.407 2.851 2.912 6.358m51.956-7.195h3.621v14.652h-4.004v-9.002l-3.861 4.668-3.861-4.573v8.906h-4.004V27.161h3.621l4.244 4.836zm19.614 7.326c0 5.841-4.124 7.565-7.098 7.565s-7.146-1.724-7.146-7.565c0-5.817 4.292-7.565 7.146-7.565s7.098 1.7 7.098 7.565m-9.855 0c0 2.514.887 4.094 2.758 4.094 1.942 0 2.71-1.58 2.71-4.094 0-1.891-.576-4.022-2.71-4.022s-2.758 2.131-2.758 4.022m20.046.168v-7.493h4.004v14.652h-4.004L99 34.585v7.23h-4.004V27.163H99zm15.371-1.963v3.375h-5.515v1.915h7.05v3.83h-11.054V27.161h11.054v3.83h-7.05v1.7zm16.21-5.531-5.06 8.69v5.961h-4.004v-5.961l-5.036-8.69h4.004l3.045 5.171 3.045-5.171zM38.712 41.825h-12.05v-2.189l7.585-9.687h-6.913v-2.774h11.171v2.222l-7.377 9.632h7.585zm4.181 0h-3.207V27.176h3.207zm12.005 0H44.886V27.176h3.207v11.767h6.804z" style="fill:#415a80"/></svg>
